<?xml version="1.0" ?><!DOCTYPE svg  PUBLIC '-//W3C//DTD SVG 1.1//EN'  'http://www.w3.org/Graphics/SVG/1.1/DTD/svg11.dtd'><svg height="100%" style="fill-rule:evenodd;clip-rule:evenodd;stroke-linejoin:round;stroke-miterlimit:1.41421;" version="1.1" viewBox="0 0 128 128" width="100%" xml:space="preserve" xmlns="http://www.w3.org/2000/svg" xmlns:serif="http://www.serif.com/" xmlns:xlink="http://www.w3.org/1999/xlink"><rect height="128" id="Upload" style="fill:none;" width="128" x="0.713" y="0.917"/><path d="M113.383,63.032c1.163,0.505 1.25,0.708 1.33,1.885c0,9.425 0.09,18.85 -0.002,28.274c-0.177,11.292 -9.921,21.614 -21.861,21.726c-18.803,0.056 -37.608,0.174 -56.41,-0.002c-11.26,-0.173 -21.611,-9.921 -21.726,-21.861c0,0 -0.001,-28.137 -0.001,-28.137c0,0 0.192,-1.48 1.33,-1.885c1.205,-0.428 2.579,0.55 2.67,1.885c0,9.408 -0.089,18.816 0.002,28.223c0.144,9.213 8.115,17.685 17.886,17.777c18.779,0.056 37.558,0.174 56.336,-0.001c9.22,-0.142 17.681,-8.116 17.776,-17.887c0,0 0,-28.112 0,-28.112c0,0 0.632,-2.455 2.67,-1.885Z" style="fill-rule:nonzero;"/><path d="M65.042,14.944c0.807,0.187 0.62,0.148 1.085,0.559l32,32c1.276,1.446 0.682,2.06 0.086,2.737c-0.718,0.814 -2.054,0.85 -2.914,0.091l-28.586,-28.586l0,75.172c0,0 -0.156,1.343 -1.148,1.81c-1.199,0.564 -2.761,-0.369 -2.852,-1.81l0,-80c0.074,-1.182 1.025,-2.108 2.329,-1.973Z" style="fill-rule:nonzero;"/><path d="M64.87,14.923c1.033,0.122 1.096,0.381 1.364,0.695c0.656,0.768 0.746,1.791 -0.107,2.713l-32,32c-1.515,1.401 -4.8,-0.695 -2.828,-2.828l32,-32c0.651,-0.602 0.874,-0.607 1.571,-0.58Z" style="fill-rule:nonzero;"/></svg>