<?xml version="1.0" ?><svg style="enable-background:new 0 0 48 48;" version="1.1" viewBox="0 0 48 48" xml:space="preserve" xmlns="http://www.w3.org/2000/svg" xmlns:xlink="http://www.w3.org/1999/xlink"><g id="Padding__x26__Artboard"/><g id="Icons"><g><path d="M23.90967,27.30225c3.28516,0,5.95801-2.67285,5.95801-5.95801s-2.67285-5.95703-5.95801-5.95703    s-5.95801,2.67188-5.95801,5.95703S20.62451,27.30225,23.90967,27.30225z M23.90967,17.04834    c0.19336,0,0.3501,0.15625,0.3501,0.34961s-0.15674,0.34961-0.3501,0.34961c-1.9834,0-3.59668,1.61328-3.59668,3.59668    c0,0.19336-0.15674,0.34961-0.3501,0.34961s-0.3501-0.15625-0.3501-0.34961C19.61279,18.9751,21.54053,17.04834,23.90967,17.04834    z M26.53369,18.37549c-0.06885,0.09277-0.1748,0.1416-0.28223,0.1416c-0.07178,0-0.14453-0.02148-0.20752-0.06836    c-0.21729-0.16016-0.4541-0.29688-0.7041-0.40625c-0.17725-0.07715-0.25781-0.2832-0.18066-0.45996    c0.07764-0.17773,0.28418-0.26074,0.46094-0.18066c0.29785,0.12988,0.58057,0.29297,0.83984,0.48438    C26.61523,18.00049,26.64844,18.21924,26.53369,18.37549z" style="fill:#303030;"/><path d="M29.98486,28.6333H17.83447c-1.09473,0-2.13184,0.42969-2.92236,1.21191    c-0.71191,0.7207-1.20947,2.06738-1.20947,3.27637c0,0.19336,0.15674,0.34961,0.3501,0.34961H33.7666    c0.19336,0,0.3501-0.15625,0.3501-0.34961C34.1167,30.72998,32.18604,28.6333,29.98486,28.6333z" style="fill:#303030;"/><path d="M33.94727,16.18506h-1.30615v-1.30664c0-0.19336-0.15674-0.34961-0.3501-0.34961    s-0.3501,0.15625-0.3501,0.34961v1.30664h-1.30615c-0.19336,0-0.3501,0.15625-0.3501,0.34961s0.15674,0.34961,0.3501,0.34961    h1.30615v1.30664c0,0.19336,0.15674,0.34961,0.3501,0.34961s0.3501-0.15625,0.3501-0.34961v-1.30664h1.30615    c0.19336,0,0.3501-0.15625,0.3501-0.34961S34.14062,16.18506,33.94727,16.18506z" style="fill:#303030;"/></g></g></svg>