<?xml version="1.0" encoding="utf-8"?>
<!-- Generator: Adobe Illustrator 24.3.0, SVG Export Plug-In . SVG Version: 6.00 Build 0)  -->
<svg version="1.1" id="Layer_1" xmlns="http://www.w3.org/2000/svg" xmlns:xlink="http://www.w3.org/1999/xlink" x="0px" y="0px"
	 viewBox="0 0 512 512" style="enable-background:new 0 0 512 512;" xml:space="preserve">
<style type="text/css">
	.st0{fill:#25325A;}
</style>
<path class="st0" d="M489.4,312.8c-3-8.3-9.3-14.9-17.4-18.3V72c0-13.2-10.8-24-24-24H192c-13.2,0-24,10.8-24,24v224.2
	c-9.1,4.1-17.8,9.1-25.9,14.8L117,328.6l-9.2-13.1c-2.5-3.6-7.5-4.5-11.1-2l-78.6,55c-3.6,2.6-4.5,7.5-2,11.2l82.6,117.9
	c2.5,3.6,7.5,4.5,11.1,2l78.6-55c3.6-2.6,4.5-7.5,2-11.2l-4.6-6.5c15.4-10.5,34.4-14.6,52.8-11.3l14.2,2.4c18,3.2,36.5,1.6,53.7-4.6
	l163.8-59.6C486.9,347.8,495.5,329.4,489.4,312.8C489.4,312.8,489.4,312.8,489.4,312.8L489.4,312.8z M360,64h88c4.4,0,8,3.6,8,8v24
	h-96V64z M296,64h48v68.7l-18.3-18.4c-3.1-3.1-8.2-3.1-11.4,0L296,132.7V64z M184,72c0-4.4,3.6-8,8-8h88v32h-96V72z M184,112h96v40
	c0,3.2,2,6.2,5,7.4c3,1.3,6.4,0.6,8.7-1.7l26.3-26.4l26.3,26.4c1.5,1.5,3.6,2.3,5.7,2.3c1,0,2.1-0.2,3-0.6c3-1.2,5-4.1,5-7.4v-40h96
	v180.1c-2.6,0.2-5.1,0.8-7.5,1.6L420.2,304h-56.2c-4.2-3.6-9.3-6-14.8-7l-80.4-14.2c-26-4.6-52.7-3-77.9,4.6l-1.4,0.5
	c-1.8,0.5-3.6,1.2-5.4,1.8L184,112z M107.1,482L33.8,377.1l65.5-45.9l73.4,104.9L107.1,482z M475.2,326.6c-1,5.6-4.9,10.3-10.3,12.2
	l-163.8,59.6c-14.5,5.3-30.2,6.6-45.4,3.9l-14.3-2.4c-22.6-4.1-45.8,0.9-64.7,13.9l-50.5-72.2l25.1-17.5c13-9.2,27.3-16.2,42.5-20.8
	l1.4-0.4c22.9-7,47.2-8.5,70.8-4.4l80.3,14.2c4.2,0.8,7.9,3.2,10.4,6.6c1.4,2.1,2.3,4.4,2.6,6.9c0.4,2.2,0.3,4.5-0.4,6.7
	c-2.3,7.9-10.2,12.8-18.3,11.4L254.2,329l-2.7,15.7l86.4,15.3c1.9,0.4,3.8,0.6,5.7,0.6c14.1,0,26.6-9.3,30.7-22.8l79.7-29
	c8.3-3,17.5,1.3,20.5,9.6C475.4,320.9,475.7,323.8,475.2,326.6L475.2,326.6z"/>
</svg>
